<?xml version="1.0" standalone="no"?>
<!DOCTYPE svg PUBLIC "-//W3C//DTD SVG 20010904//EN"
 "http://www.w3.org/TR/2001/REC-SVG-20010904/DTD/svg10.dtd">
<svg version="1.0" xmlns="http://www.w3.org/2000/svg"
 width="1024.000000pt" height="1024.000000pt" viewBox="0 0 1024.000000 1024.000000"
 preserveAspectRatio="xMidYMid meet">
<metadata>
Created by potrace 1.14, written by Peter Selinger 2001-2017
</metadata>
<g transform="translate(0.000000,1024.000000) scale(0.100000,-0.100000)"
fill="#000000" stroke="none">
<path d="M3225 9291 c-22 -4 -52 -14 -65 -24 -13 -9 -33 -17 -43 -17 -10 0
-31 -7 -45 -15 -15 -8 -38 -20 -52 -25 -38 -16 -62 -32 -91 -60 -14 -14 -42
-38 -63 -53 -20 -16 -47 -45 -60 -66 -14 -21 -30 -44 -38 -52 -20 -21 -88
-156 -88 -175 0 -10 -7 -25 -15 -34 -9 -10 -20 -39 -24 -66 -5 -27 -14 -74
-20 -104 -8 -40 -10 -687 -9 -2295 3 -2370 2 -2298 48 -2400 10 -22 30 -70 45
-108 16 -37 35 -73 43 -79 8 -7 26 -30 41 -52 14 -21 33 -49 41 -62 29 -43
164 -147 229 -177 139 -63 46 -60 2051 -64 1604 -3 1832 -1 1886 12 33 8 74
15 90 15 16 0 46 9 67 20 20 11 43 20 51 20 7 0 19 7 26 15 7 8 21 15 31 15
10 0 24 9 32 20 8 11 35 34 60 51 25 17 63 53 84 81 54 72 122 190 122 213 1
11 10 26 21 33 14 8 20 23 20 48 0 19 8 49 18 67 16 30 17 161 17 2352 0 2188
-1 2322 -17 2359 -10 21 -18 48 -18 59 0 29 -97 224 -119 239 -10 7 -23 24
-30 38 -24 48 -144 153 -221 192 -41 21 -81 38 -88 38 -7 0 -34 10 -60 23
l-47 22 -1885 1 c-1037 1 -1903 -1 -1925 -5z m910 -614 c17 -9 38 -17 48 -17
21 0 113 -45 122 -60 4 -6 17 -16 28 -21 12 -5 32 -16 44 -23 36 -21 152 -144
184 -196 16 -26 36 -51 44 -54 8 -3 15 -12 15 -19 0 -8 12 -41 26 -73 48 -107
63 -253 40 -368 -18 -84 -65 -198 -88 -212 -8 -5 -29 -30 -46 -56 -18 -26 -40
-53 -50 -60 -10 -7 -33 -34 -52 -60 -18 -27 -44 -55 -56 -63 -13 -8 -31 -30
-40 -48 -9 -17 -35 -51 -58 -73 -23 -23 -66 -72 -96 -109 -72 -87 -153 -182
-193 -225 -17 -19 -37 -43 -42 -52 -12 -20 -83 -102 -136 -156 -19 -20 -45
-54 -58 -74 -12 -21 -34 -47 -49 -59 -15 -11 -31 -29 -37 -39 -10 -19 -50 -66
-137 -164 -59 -65 -61 -89 -10 -143 20 -22 60 -68 87 -102 28 -34 71 -86 96
-114 25 -29 54 -66 64 -84 10 -17 28 -37 40 -43 12 -6 30 -28 40 -48 11 -20
34 -50 52 -65 19 -16 41 -43 50 -60 18 -36 58 -89 118 -158 22 -26 53 -65 69
-88 17 -22 33 -41 38 -41 4 0 19 -17 32 -38 13 -21 42 -57 65 -81 22 -23 41
-46 41 -50 0 -3 19 -27 43 -51 42 -44 107 -138 107 -155 0 -5 8 -18 18 -29 42
-48 82 -200 82 -313 0 -121 -39 -280 -82 -329 -10 -11 -18 -26 -18 -32 0 -17
-63 -108 -106 -151 -19 -20 -43 -48 -52 -63 -9 -16 -21 -28 -26 -28 -5 0 -28
-16 -52 -35 -23 -19 -50 -35 -59 -35 -10 0 -26 -11 -37 -25 -11 -14 -28 -25
-38 -25 -10 0 -31 -6 -47 -14 -71 -35 -164 -46 -390 -46 -202 0 -229 2 -289
22 -42 14 -79 34 -99 54 -18 17 -41 37 -52 42 -11 6 -36 42 -55 79 -20 37 -43
82 -52 98 -14 27 -16 220 -16 2084 0 1992 1 2055 19 2085 10 17 24 48 31 69 6
21 31 58 55 83 24 24 45 48 47 54 2 5 32 25 68 44 l65 35 355 -2 c316 -2 358
-4 385 -20z m1306 7 c8 -6 32 -16 54 -22 68 -18 117 -39 125 -52 5 -8 22 -21
38 -29 53 -28 117 -74 126 -89 5 -8 29 -36 53 -61 64 -66 128 -180 161 -286
24 -77 28 -276 6 -345 -30 -96 -84 -187 -163 -277 -25 -29 -71 -82 -101 -118
-30 -36 -70 -82 -89 -103 -19 -20 -45 -52 -57 -70 -12 -18 -38 -49 -57 -70
-20 -20 -59 -65 -89 -99 -29 -34 -73 -85 -98 -113 -25 -28 -51 -62 -58 -76 -7
-13 -16 -24 -21 -24 -4 0 -39 -39 -77 -86 -70 -87 -150 -181 -224 -264 -23
-26 -49 -57 -58 -72 -9 -14 -34 -41 -54 -60 -21 -20 -38 -41 -38 -48 0 -6 16
-28 37 -49 20 -20 54 -60 76 -88 22 -29 43 -53 47 -53 5 0 22 -23 39 -50 17
-28 38 -53 47 -57 8 -3 23 -22 34 -43 11 -21 37 -52 60 -70 22 -17 40 -38 40
-45 0 -7 21 -37 48 -67 26 -29 64 -78 84 -108 21 -30 45 -60 55 -66 10 -6 32
-31 48 -55 17 -23 52 -66 78 -93 27 -28 55 -63 63 -77 7 -15 28 -39 46 -54 18
-15 41 -42 51 -59 11 -17 34 -47 52 -66 18 -19 48 -54 67 -77 97 -123 242
-293 249 -293 4 0 10 -8 13 -17 4 -10 30 -43 59 -74 28 -31 68 -79 87 -107 19
-28 38 -51 42 -52 3 0 25 -24 48 -52 23 -29 63 -76 88 -105 26 -28 72 -81 102
-118 30 -37 79 -93 108 -126 28 -32 52 -63 52 -67 0 -5 18 -26 40 -48 40 -39
96 -122 88 -130 -3 -3 -1729 -7 -1930 -4 -31 0 -20 14 30 37 92 43 216 189
256 302 88 247 100 358 68 632 -5 42 -16 87 -26 100 -9 13 -16 35 -16 49 0 15
-7 35 -15 46 -8 10 -15 27 -15 36 0 20 -38 97 -57 116 -7 7 -13 18 -13 23 0
13 -88 134 -215 293 -103 131 -156 194 -257 309 -24 27 -47 56 -52 65 -5 9
-29 37 -53 61 -24 25 -43 49 -43 52 0 4 -22 31 -50 60 -27 29 -50 57 -50 61 0
4 -20 30 -45 58 -25 28 -45 59 -45 68 0 10 16 34 36 53 20 18 44 50 54 70 10
20 34 50 54 66 19 17 41 44 50 60 8 15 32 47 53 69 21 23 54 64 73 92 19 28
38 51 42 52 4 0 26 24 49 53 22 28 63 77 90 107 82 92 151 173 209 245 30 38
73 89 95 113 72 80 205 314 205 360 0 9 10 33 22 52 21 33 22 46 22 255 1 211
0 221 -21 256 -13 20 -23 44 -23 52 0 16 -19 66 -46 120 -8 16 -14 35 -14 43
0 8 -4 14 -8 14 -5 0 -23 22 -41 50 -18 27 -42 57 -54 67 -12 10 -35 35 -50
56 -18 24 -36 37 -51 37 -25 0 -50 22 -39 34 12 12 478 2 494 -10z m1446 -4
c21 -11 43 -20 49 -20 17 0 141 -134 149 -162 4 -13 15 -32 25 -43 10 -11 21
-42 25 -70 4 -27 9 -929 11 -2003 l4 -1953 -29 16 c-16 8 -44 36 -62 62 -17
27 -40 54 -51 62 -11 7 -28 26 -37 42 -10 16 -35 50 -57 75 -21 25 -59 70 -84
98 -25 29 -66 80 -92 112 -27 32 -84 102 -128 154 -44 52 -108 131 -141 175
-33 44 -83 105 -110 135 -56 63 -134 155 -197 232 -23 29 -89 109 -145 177
-56 68 -114 140 -130 160 -15 20 -42 52 -60 72 -17 19 -61 70 -97 113 -36 43
-89 106 -117 140 -29 33 -53 64 -53 67 0 4 24 33 53 66 28 33 79 93 112 134
33 40 74 88 91 105 17 18 47 57 67 86 21 29 53 69 73 88 20 19 45 52 55 72 11
21 24 38 29 38 5 0 25 21 44 48 43 58 105 136 171 213 28 32 70 83 95 114 25
31 62 77 83 102 21 24 47 61 57 81 11 21 31 55 45 77 13 22 24 49 25 61 0 11
7 29 15 40 8 10 15 31 15 45 0 15 9 48 21 74 19 42 20 62 17 219 -2 120 -7
178 -16 188 -6 8 -16 35 -21 59 -14 65 -60 181 -81 204 -10 11 -21 32 -25 46
-9 36 -122 152 -174 179 -33 16 -41 24 -30 31 8 5 139 9 292 9 258 0 280 -1
314 -20z"/>
<path d="M8692 4708 c-7 -7 -12 -21 -12 -33 0 -11 -9 -28 -20 -38 -11 -9 -20
-26 -20 -36 0 -11 -5 -23 -11 -26 -5 -4 -14 -18 -19 -31 -9 -22 -15 -23 -107
-26 l-98 -3 4 -113 c3 -122 -9 -162 -49 -162 -11 0 -24 -9 -30 -20 -6 -11 -17
-20 -25 -20 -20 0 -65 -44 -65 -63 0 -9 9 -21 20 -27 11 -6 20 -19 20 -29 0
-10 7 -24 15 -31 10 -8 15 -31 15 -65 0 -38 -4 -55 -15 -59 -8 -3 -15 -17 -15
-30 0 -14 -8 -31 -18 -38 -34 -24 -34 -48 -1 -79 17 -16 37 -29 44 -29 7 0 15
-7 19 -15 3 -8 14 -15 24 -15 10 0 28 -13 40 -30 20 -26 22 -42 22 -143 l0
-114 96 5 c91 5 95 4 101 -17 3 -11 12 -21 19 -21 8 0 14 -9 14 -20 0 -11 9
-29 20 -40 11 -11 20 -28 20 -37 0 -10 9 -29 19 -42 l19 -24 11 21 c6 12 20
22 31 22 11 0 24 9 30 20 6 11 17 20 24 20 8 0 16 7 20 15 3 8 12 15 21 15 9
0 18 -7 21 -15 4 -8 15 -15 25 -15 11 0 22 -7 25 -15 3 -8 15 -17 27 -21 11
-4 28 -16 37 -27 20 -24 40 -15 40 17 0 13 7 29 15 36 8 7 15 19 15 27 0 8 6
27 14 41 8 15 17 35 20 45 5 16 18 18 108 17 57 -1 109 -1 116 -1 9 1 12 33
11 131 0 71 2 134 6 140 3 5 17 10 31 10 15 0 24 6 24 15 0 8 8 15 18 15 9 0
30 12 45 26 29 24 29 25 13 59 -9 19 -21 37 -26 40 -6 3 -10 15 -10 26 0 10
-9 24 -20 31 -24 15 -28 82 -7 95 14 8 31 36 61 101 18 38 5 72 -27 72 -9 0
-25 9 -34 20 -10 11 -22 20 -28 20 -5 1 -23 17 -38 38 -26 34 -28 43 -27 127
1 49 1 96 1 103 -1 9 -29 12 -106 12 -103 0 -105 0 -111 25 -3 13 -12 29 -20
36 -8 6 -14 22 -14 34 0 12 -7 28 -15 35 -8 7 -15 21 -15 32 0 28 -25 33 -49
9 -12 -12 -25 -21 -30 -21 -5 0 -23 -13 -41 -30 -41 -38 -57 -38 -103 5 -21
19 -44 35 -50 35 -7 0 -18 9 -25 20 -14 23 -23 25 -40 8z m453 -548 c9 -16 20
-30 25 -30 27 0 2 -43 -66 -115 -42 -44 -90 -99 -107 -122 -17 -24 -35 -43
-40 -43 -11 0 -46 -41 -47 -55 0 -5 -27 -35 -61 -67 -63 -61 -79 -64 -94 -17
-4 10 -13 19 -21 19 -8 0 -14 7 -14 15 0 9 -7 18 -15 21 -8 4 -15 12 -15 19 0
6 -22 35 -50 64 -27 29 -50 61 -50 73 0 11 14 38 31 59 36 45 73 53 85 17 4
-12 20 -36 36 -52 16 -16 34 -40 39 -52 8 -24 39 -24 39 0 0 6 16 26 35 43 19
18 35 37 35 43 0 5 7 10 15 10 8 0 15 6 15 13 0 6 16 27 35 44 19 18 35 37 35
43 0 5 4 10 10 10 13 0 50 41 61 68 14 35 64 31 84 -8z"/>
<path d="M2465 2399 c-14 -19 -25 -46 -25 -60 -1 -13 -7 -35 -15 -49 -8 -14
-15 -38 -15 -55 0 -16 -7 -41 -15 -55 -8 -14 -14 -37 -15 -51 0 -15 -9 -38
-20 -52 -11 -14 -20 -32 -20 -39 0 -8 -6 -34 -14 -59 -7 -24 -22 -73 -31 -109
-10 -36 -26 -83 -35 -105 -10 -22 -26 -65 -34 -95 -9 -30 -23 -77 -31 -103 -8
-26 -15 -57 -15 -69 0 -12 -6 -29 -13 -37 -16 -18 -57 -142 -57 -170 0 -10 -9
-28 -20 -41 -11 -13 -20 -33 -20 -45 0 -13 -7 -39 -15 -58 -8 -20 -15 -47 -15
-61 0 -13 -7 -37 -17 -53 -10 -19 -14 -39 -9 -56 l6 -27 139 0 c143 0 171 4
171 23 0 7 11 34 24 62 23 48 42 113 55 185 l6 35 243 3 c189 2 243 0 246 -10
41 -156 82 -269 103 -285 12 -9 64 -13 175 -13 l158 0 6 26 c5 18 0 34 -15 54
-11 16 -21 38 -21 49 0 11 -6 35 -14 53 -24 59 -46 135 -46 160 0 14 -9 37
-20 51 -11 14 -20 31 -20 38 0 17 -29 117 -46 157 -8 18 -14 40 -14 50 0 10
-9 34 -20 55 -11 20 -20 45 -20 54 0 10 -7 38 -15 63 -8 25 -24 77 -36 117
-11 40 -27 77 -35 84 -8 6 -14 25 -14 41 0 16 -7 45 -15 65 -8 19 -15 46 -15
58 0 12 -8 33 -19 46 -10 13 -21 38 -23 54 -3 17 -10 44 -16 60 -6 17 -18 56
-28 88 -9 31 -22 57 -28 57 -6 0 -93 1 -194 3 l-183 2 -24 -36z m228 -386 c9
-27 17 -56 17 -67 0 -22 27 -109 48 -154 8 -17 18 -51 22 -75 4 -23 13 -63 20
-88 7 -25 10 -56 7 -70 l-6 -24 -138 3 c-143 4 -158 8 -149 47 14 61 29 112
37 125 22 36 41 97 58 185 5 22 13 53 20 68 6 16 11 41 11 56 0 59 31 55 53
-6z"/>
<path d="M3424 2427 c-12 -7 -14 -116 -14 -730 0 -549 3 -726 12 -735 15 -15
274 -17 283 -2 4 6 6 242 6 525 -1 490 2 546 26 521 3 -3 9 -25 13 -48 9 -48
25 -98 46 -141 8 -16 14 -37 14 -47 0 -11 8 -27 18 -37 10 -10 27 -45 37 -78
10 -33 24 -67 32 -76 7 -9 18 -29 23 -45 4 -16 18 -54 30 -84 12 -30 25 -66
30 -80 4 -14 22 -56 39 -93 17 -38 31 -73 31 -79 0 -9 52 -124 93 -206 l22
-42 190 2 189 3 13 25 c10 19 12 182 10 735 l-2 710 -153 0 -153 0 0 -466 c0
-293 4 -477 11 -493 12 -34 13 -86 1 -105 -8 -12 -11 -8 -16 15 -10 44 -35
125 -52 164 -8 19 -32 81 -53 137 -22 57 -46 111 -55 119 -8 9 -15 24 -15 34
0 19 -19 69 -46 122 -8 14 -14 33 -14 42 0 9 -9 29 -19 44 -10 15 -27 52 -36
82 -10 30 -24 67 -31 82 -8 14 -14 35 -14 45 0 11 -9 28 -20 38 -11 10 -20 25
-20 33 0 7 -6 28 -14 45 -8 18 -16 40 -19 49 -5 15 -28 18 -207 20 -111 2
-208 -1 -216 -5z"/>
<path d="M5539 2431 c-22 -7 -70 -66 -95 -116 -36 -72 -55 -104 -92 -154 -18
-24 -32 -48 -32 -53 0 -5 -15 -33 -33 -61 -19 -29 -48 -74 -65 -101 -18 -27
-32 -58 -32 -67 0 -10 -12 -25 -27 -33 l-28 -14 0 297 0 296 -165 0 -165 0 -2
-710 c-2 -553 0 -716 10 -735 13 -25 13 -25 157 -25 144 0 144 0 158 25 10 20
12 90 10 323 -2 163 -1 297 2 297 16 -1 40 -32 64 -80 42 -86 58 -115 68 -118
5 -2 24 -38 44 -80 20 -43 44 -86 53 -97 10 -11 25 -33 33 -50 51 -100 63
-121 75 -128 7 -4 13 -13 13 -19 0 -6 12 -26 26 -45 l25 -33 187 2 c180 3 187
4 190 24 3 20 -39 98 -89 164 -15 19 -39 58 -54 85 -14 28 -46 78 -71 113 -24
35 -44 67 -44 72 0 4 -20 34 -43 67 -24 32 -50 70 -58 85 -8 14 -24 44 -37 66
-12 23 -36 55 -52 72 -41 42 -38 71 10 122 22 24 40 48 40 54 0 6 7 17 15 24
9 7 32 41 51 74 20 33 45 67 55 74 10 7 31 38 45 68 14 30 36 65 48 77 13 12
42 54 66 92 24 39 54 83 67 99 13 16 22 33 20 39 -3 9 -321 17 -348 8z"/>
<path d="M6606 2432 c-15 -3 -16 -62 -14 -740 l3 -737 265 0 c175 1 287 5 330
14 36 7 85 16 110 20 62 11 117 37 168 78 45 37 92 116 92 155 0 13 6 32 14
43 7 11 16 43 20 71 12 95 -87 324 -140 324 -6 0 -17 6 -23 14 -7 8 -26 18
-42 21 -36 8 -46 23 -22 32 10 4 30 18 44 32 14 14 42 40 61 56 62 52 97 225
68 334 -5 20 -12 48 -15 63 -6 33 -114 158 -136 158 -8 0 -20 5 -26 11 -29 29
-142 41 -439 48 -166 3 -309 5 -318 3z m531 -287 c24 -11 46 -29 49 -40 4 -11
15 -31 25 -44 28 -35 24 -81 -10 -127 -68 -90 -57 -84 -166 -90 -59 -3 -106
-1 -114 5 -12 7 -14 38 -13 153 1 124 4 145 19 156 27 20 157 12 210 -13z m13
-587 c11 -12 32 -27 46 -33 44 -18 66 -107 43 -176 -27 -80 -100 -119 -223
-119 -44 0 -87 4 -95 9 -11 7 -13 42 -13 162 1 133 4 155 19 166 11 8 51 13
110 13 82 0 94 -2 113 -22z"/>
<path d="M8980 2432 c-11 -4 -15 -1438 -4 -1466 5 -14 27 -16 141 -16 74 0
143 5 154 10 19 10 19 29 19 740 l0 729 -150 3 c-83 2 -155 2 -160 0z"/>
<path d="M960 1702 c0 -611 2 -731 14 -741 19 -16 508 -9 591 8 33 7 80 16
105 20 102 18 209 96 247 181 43 95 45 261 4 368 -22 57 -98 136 -147 152 -52
17 -64 29 -37 36 12 4 25 14 28 23 3 9 26 28 50 43 26 16 50 39 56 55 6 15 18
36 27 47 26 28 24 276 -2 326 -23 44 -98 139 -110 140 -5 0 -27 8 -50 19 -88
40 -124 44 -453 48 l-323 4 0 -729z m512 458 c49 -14 91 -56 108 -108 19 -58
2 -124 -44 -170 -31 -32 -37 -34 -129 -39 -70 -4 -101 -2 -112 7 -12 10 -15
40 -15 157 0 140 1 144 23 153 30 12 124 12 169 0z m81 -626 c62 -51 74 -84
61 -169 -8 -56 -36 -92 -89 -113 -51 -20 -211 -28 -231 -12 -11 10 -14 45 -14
166 0 135 2 154 18 163 9 6 58 11 108 11 l92 0 55 -46z"/>
<path d="M7780 2423 c-1 -4 -1 -332 -1 -728 0 -669 2 -721 18 -732 21 -16 289
-18 298 -3 4 6 6 130 5 276 0 189 3 270 11 280 7 9 32 14 69 14 67 0 116 -27
142 -78 9 -19 23 -41 31 -50 8 -9 18 -38 21 -64 4 -26 11 -50 17 -53 5 -4 9
-18 9 -33 0 -25 11 -65 46 -172 9 -25 20 -64 26 -88 l10 -42 158 0 c180 0 186
2 169 66 -25 96 -42 151 -56 184 -17 38 -32 89 -66 222 -13 48 -30 95 -40 106
-9 10 -17 24 -17 31 0 24 -51 99 -70 104 -31 8 -24 20 29 49 56 32 106 85 128
137 9 20 24 52 34 72 14 27 19 58 19 122 0 79 -3 93 -37 164 -40 84 -99 150
-154 171 -97 39 -160 45 -481 49 -175 2 -318 0 -318 -4z m553 -275 c74 -30 97
-71 97 -169 0 -66 -3 -76 -32 -115 -18 -24 -40 -46 -48 -50 -8 -3 -64 -8 -124
-11 -86 -5 -110 -3 -117 8 -14 22 -11 333 3 347 21 21 160 15 221 -10z"/>
</g>
</svg>
